<svg xmlns="http://www.w3.org/2000/svg" xmlns:xlink="http://www.w3.org/1999/xlink" width="500" zoomAndPan="magnify" viewBox="0 0 375 74.999997" height="100" preserveAspectRatio="xMidYMid meet" version="1.0"><defs><clipPath id="f584cdefb8"><path d="M 0 25.3125 L 187.5 25.3125 L 187.5 56 L 0 56 Z M 0 25.3125 " clip-rule="nonzero"/></clipPath><clipPath id="f73f133f32"><path d="M 187.5 25.3125 L 375 25.3125 L 375 56 L 187.5 56 Z M 187.5 25.3125 " clip-rule="nonzero"/></clipPath></defs><g clip-path="url(#f584cdefb8)"><path fill="#cda349" d="M 27.941406 33.347656 C 27.359375 34.507812 26.402344 35.601562 25.464844 36.472656 C 26.742188 36.425781 28.191406 36.519531 29.425781 36.929688 L 29.425781 34.832031 Z M 152.941406 33.347656 C 152.359375 34.507812 151.402344 35.601562 150.464844 36.472656 C 151.742188 36.425781 153.191406 36.519531 154.425781 36.929688 L 154.425781 34.832031 Z M 159.558594 33.347656 C 160.140625 34.507812 161.097656 35.601562 162.035156 36.472656 C 160.757812 36.425781 159.308594 36.519531 158.074219 36.929688 L 158.074219 34.832031 Z M 187.5 55.773438 L 0 55.773438 L 0 54.347656 L 9.910156 54.347656 L 8.425781 52.863281 C 9.585938 52.28125 10.679688 51.324219 11.550781 50.386719 C 11.503906 51.664062 11.597656 53.113281 12.007812 54.347656 L 9.910156 54.347656 L 13.523438 54.347656 C 12.808594 52.84375 12.917969 50.519531 13.0625 49.269531 C 13.226562 47.828125 13.625 45.878906 14.441406 44.664062 L 15.03125 43.789062 C 14.5625 43.703125 14.128906 43.519531 13.753906 43.261719 L 13.550781 44.292969 C 13.269531 45.730469 12.171875 47.394531 11.269531 48.527344 C 10.050781 50.0625 6.929688 53.382812 4.859375 51.3125 C 2.789062 49.242188 6.109375 46.121094 7.644531 44.902344 C 8.777344 44 10.441406 42.902344 11.878906 42.621094 L 12.910156 42.417969 C 12.652344 42.042969 12.46875 41.609375 12.382812 41.140625 L 11.507812 41.730469 C 10.292969 42.546875 8.34375 42.945312 6.902344 43.109375 C 4.953125 43.332031 0.398438 43.472656 0.398438 40.546875 C 0.398438 37.621094 4.953125 37.761719 6.902344 37.984375 C 8.34375 38.148438 10.292969 38.546875 11.507812 39.363281 L 12.382812 39.953125 C 12.46875 39.484375 12.652344 39.050781 12.910156 38.675781 L 11.878906 38.472656 C 10.441406 38.191406 8.777344 37.09375 7.644531 36.191406 C 6.109375 34.972656 2.789062 31.851562 4.859375 29.78125 C 6.929688 27.710938 10.050781 31.03125 11.269531 32.566406 C 12.171875 33.699219 13.269531 35.363281 13.550781 36.800781 L 13.753906 37.832031 C 14.128906 37.574219 14.5625 37.390625 15.03125 37.304688 L 14.441406 36.429688 C 13.625 35.214844 13.226562 33.265625 13.0625 31.824219 C 12.917969 30.574219 12.808594 28.25 13.523438 26.746094 L 12.007812 26.746094 C 11.597656 27.980469 11.5 29.429688 11.550781 30.707031 C 10.679688 29.769531 9.585938 28.8125 8.425781 28.230469 L 9.910156 26.746094 L 0 26.746094 L 0 25.320312 L 187.5 25.320312 L 187.5 26.746094 L 177.589844 26.746094 L 179.074219 28.230469 C 177.914062 28.8125 176.820312 29.769531 175.949219 30.707031 C 175.996094 29.429688 175.902344 27.980469 175.492188 26.746094 L 173.976562 26.746094 C 174.691406 28.25 174.582031 30.574219 174.4375 31.824219 C 174.273438 33.265625 173.875 35.214844 173.058594 36.429688 L 172.46875 37.304688 C 172.9375 37.390625 173.371094 37.574219 173.746094 37.832031 L 173.949219 36.800781 C 174.230469 35.363281 175.328125 33.699219 176.230469 32.566406 C 177.449219 31.03125 180.570312 27.710938 182.640625 29.78125 C 184.710938 31.851562 181.390625 34.972656 179.855469 36.191406 C 178.722656 37.09375 177.058594 38.191406 175.621094 38.472656 L 174.589844 38.675781 C 174.847656 39.050781 175.03125 39.484375 175.117188 39.953125 L 175.992188 39.363281 C 177.207031 38.546875 179.15625 38.148438 180.597656 37.984375 C 182.546875 37.761719 187.101562 37.621094 187.101562 40.546875 C 187.101562 43.472656 182.546875 43.332031 180.597656 43.109375 C 179.15625 42.945312 177.207031 42.546875 175.992188 41.730469 L 175.117188 41.140625 C 175.03125 41.609375 174.847656 42.042969 174.589844 42.417969 L 175.621094 42.621094 C 177.058594 42.902344 178.722656 44 179.855469 44.902344 C 181.390625 46.121094 184.710938 49.242188 182.640625 51.3125 C 180.570312 53.382812 177.449219 50.0625 176.230469 48.527344 C 175.328125 47.394531 174.230469 45.730469 173.949219 44.292969 L 173.746094 43.261719 C 173.371094 43.519531 172.9375 43.703125 172.46875 43.789062 L 173.058594 44.664062 C 173.875 45.878906 174.273438 47.828125 174.4375 49.269531 C 174.582031 50.519531 174.691406 52.84375 173.976562 54.347656 L 177.589844 54.347656 L 175.492188 54.347656 C 175.902344 53.113281 175.996094 51.664062 175.949219 50.386719 C 176.820312 51.324219 177.914062 52.28125 179.074219 52.863281 L 177.589844 54.347656 L 187.5 54.347656 Z M 125 54.347656 L 134.910156 54.347656 L 133.425781 52.863281 C 134.585938 52.28125 135.679688 51.324219 136.550781 50.386719 C 136.503906 51.664062 136.597656 53.113281 137.007812 54.347656 L 134.910156 54.347656 L 138.523438 54.347656 C 137.808594 52.84375 137.917969 50.519531 138.0625 49.269531 C 138.226562 47.828125 138.625 45.878906 139.441406 44.664062 L 140.03125 43.789062 C 139.5625 43.703125 139.128906 43.519531 138.753906 43.261719 L 138.550781 44.292969 C 138.269531 45.730469 137.171875 47.394531 136.269531 48.527344 C 135.050781 50.0625 131.929688 53.382812 129.859375 51.3125 C 127.789062 49.242188 131.109375 46.121094 132.644531 44.902344 C 133.777344 44 135.441406 42.902344 136.878906 42.621094 L 137.910156 42.417969 C 137.652344 42.042969 137.46875 41.609375 137.382812 41.140625 L 136.507812 41.730469 C 135.292969 42.546875 133.34375 42.945312 131.902344 43.109375 C 129.953125 43.332031 125.398438 43.472656 125.398438 40.546875 C 125.398438 37.621094 129.953125 37.761719 131.902344 37.984375 C 133.34375 38.148438 135.292969 38.546875 136.507812 39.363281 L 137.382812 39.953125 C 137.46875 39.484375 137.652344 39.050781 137.910156 38.675781 L 136.878906 38.472656 C 135.441406 38.191406 133.777344 37.09375 132.644531 36.191406 C 131.109375 34.972656 127.789062 31.851562 129.859375 29.78125 C 131.929688 27.710938 135.050781 31.03125 136.269531 32.566406 C 137.171875 33.699219 138.269531 35.363281 138.550781 36.800781 L 138.753906 37.832031 C 139.128906 37.574219 139.5625 37.390625 140.03125 37.304688 L 139.441406 36.429688 C 138.625 35.214844 138.226562 33.265625 138.0625 31.824219 C 137.917969 30.574219 137.808594 28.25 138.523438 26.746094 L 137.007812 26.746094 C 136.597656 27.980469 136.5 29.429688 136.550781 30.707031 C 135.679688 29.769531 134.585938 28.8125 133.425781 28.230469 L 134.910156 26.746094 L 115.089844 26.746094 L 116.574219 28.230469 C 115.414062 28.8125 114.320312 29.769531 113.449219 30.707031 C 113.496094 29.429688 113.402344 27.980469 112.992188 26.746094 L 111.476562 26.746094 C 112.191406 28.25 112.082031 30.574219 111.9375 31.824219 C 111.773438 33.265625 111.375 35.214844 110.558594 36.429688 L 109.96875 37.304688 C 110.4375 37.390625 110.871094 37.574219 111.246094 37.832031 L 111.449219 36.800781 C 111.730469 35.363281 112.828125 33.699219 113.730469 32.566406 C 114.949219 31.03125 118.070312 27.710938 120.140625 29.78125 C 122.210938 31.851562 118.890625 34.972656 117.355469 36.191406 C 116.222656 37.09375 114.558594 38.191406 113.121094 38.472656 L 112.089844 38.675781 C 112.347656 39.050781 112.53125 39.484375 112.617188 39.953125 L 113.492188 39.363281 C 114.707031 38.546875 116.65625 38.148438 118.097656 37.984375 C 120.046875 37.761719 124.601562 37.621094 124.601562 40.546875 C 124.601562 43.472656 120.046875 43.332031 118.097656 43.109375 C 116.65625 42.945312 114.707031 42.546875 113.492188 41.730469 L 112.617188 41.140625 C 112.53125 41.609375 112.347656 42.042969 112.089844 42.417969 L 113.121094 42.621094 C 114.558594 42.902344 116.222656 44 117.355469 44.902344 C 118.890625 46.121094 122.210938 49.242188 120.140625 51.3125 C 118.070312 53.382812 114.949219 50.0625 113.730469 48.527344 C 112.828125 47.394531 111.730469 45.730469 111.449219 44.292969 L 111.246094 43.261719 C 110.871094 43.519531 110.4375 43.703125 109.96875 43.789062 L 110.558594 44.664062 C 111.375 45.878906 111.773438 47.828125 111.9375 49.269531 C 112.082031 50.519531 112.191406 52.84375 111.476562 54.347656 L 115.089844 54.347656 L 112.992188 54.347656 C 113.402344 53.113281 113.496094 51.664062 113.449219 50.386719 C 114.320312 51.324219 115.414062 52.28125 116.574219 52.863281 L 115.089844 54.347656 Z M 156.25 54.347656 L 166.160156 54.347656 L 164.675781 52.863281 C 165.835938 52.28125 166.929688 51.324219 167.800781 50.386719 C 167.753906 51.664062 167.847656 53.113281 168.257812 54.347656 L 169.773438 54.347656 C 169.058594 52.84375 169.167969 50.519531 169.3125 49.269531 C 169.476562 47.828125 169.875 45.878906 170.691406 44.664062 L 171.28125 43.789062 C 170.8125 43.703125 170.378906 43.519531 170.003906 43.257812 L 169.800781 44.292969 C 169.519531 45.730469 168.421875 47.394531 167.519531 48.527344 C 166.300781 50.0625 163.179688 53.382812 161.109375 51.3125 C 159.039062 49.242188 162.359375 46.121094 163.894531 44.902344 C 165.027344 44 166.691406 42.902344 168.128906 42.621094 L 169.160156 42.417969 C 168.902344 42.042969 168.71875 41.609375 168.632812 41.140625 L 167.757812 41.730469 C 166.542969 42.546875 164.59375 42.945312 163.152344 43.109375 C 161.203125 43.332031 156.648438 43.472656 156.648438 40.546875 C 156.648438 37.621094 161.203125 37.761719 163.152344 37.984375 C 164.59375 38.148438 166.542969 38.546875 167.757812 39.363281 L 168.632812 39.953125 C 168.71875 39.484375 168.902344 39.050781 169.160156 38.675781 L 168.128906 38.472656 C 166.691406 38.191406 165.027344 37.09375 163.894531 36.191406 C 162.359375 34.972656 159.039062 31.851562 161.109375 29.78125 C 163.179688 27.710938 166.300781 31.03125 167.519531 32.566406 C 168.421875 33.699219 169.519531 35.363281 169.800781 36.800781 L 170.003906 37.832031 C 170.378906 37.574219 170.8125 37.390625 171.28125 37.304688 L 170.691406 36.429688 C 169.875 35.214844 169.476562 33.265625 169.3125 31.824219 C 169.167969 30.574219 169.058594 28.25 169.773438 26.746094 L 168.257812 26.746094 C 167.847656 27.980469 167.75 29.429688 167.800781 30.707031 C 166.929688 29.769531 165.835938 28.8125 164.675781 28.230469 L 166.160156 26.746094 L 146.339844 26.746094 L 147.824219 28.230469 C 146.664062 28.8125 145.570312 29.769531 144.699219 30.707031 C 144.746094 29.429688 144.652344 27.980469 144.242188 26.746094 L 142.726562 26.746094 C 143.441406 28.25 143.332031 30.574219 143.1875 31.824219 C 143.023438 33.265625 142.625 35.214844 141.808594 36.429688 L 141.21875 37.304688 C 141.6875 37.390625 142.121094 37.574219 142.496094 37.832031 L 142.699219 36.800781 C 142.980469 35.363281 144.078125 33.699219 144.980469 32.566406 C 146.199219 31.03125 149.320312 27.710938 151.390625 29.78125 C 153.460938 31.851562 150.140625 34.972656 148.605469 36.191406 C 147.472656 37.09375 145.808594 38.191406 144.371094 38.472656 L 143.335938 38.675781 C 143.597656 39.050781 143.78125 39.484375 143.867188 39.953125 L 144.742188 39.363281 C 145.957031 38.546875 147.90625 38.148438 149.347656 37.984375 C 151.296875 37.761719 155.847656 37.621094 155.851562 40.546875 C 155.847656 43.472656 151.296875 43.332031 149.347656 43.109375 C 147.90625 42.945312 145.957031 42.546875 144.742188 41.730469 L 143.867188 41.140625 C 143.78125 41.609375 143.597656 42.042969 143.335938 42.417969 L 144.371094 42.621094 C 145.808594 42.902344 147.472656 44 148.605469 44.902344 C 150.140625 46.121094 153.460938 49.242188 151.390625 51.3125 C 149.320312 53.382812 146.199219 50.0625 144.980469 48.527344 C 144.078125 47.394531 142.980469 45.730469 142.699219 44.292969 L 142.496094 43.257812 C 142.121094 43.519531 141.6875 43.703125 141.21875 43.789062 L 141.808594 44.664062 C 142.625 45.878906 143.023438 47.828125 143.1875 49.269531 C 143.332031 50.519531 143.441406 52.84375 142.726562 54.347656 L 144.242188 54.347656 C 144.652344 53.113281 144.746094 51.664062 144.699219 50.386719 C 145.570312 51.324219 146.664062 52.28125 147.824219 52.863281 L 146.339844 54.347656 Z M 171.875 38.675781 C 170.839844 38.675781 170.003906 39.511719 170.003906 40.546875 C 170.003906 41.578125 170.839844 42.417969 171.875 42.417969 C 172.910156 42.417969 173.746094 41.578125 173.746094 40.546875 C 173.746094 39.511719 172.90625 38.675781 171.875 38.675781 Z M 171.875 35.632812 C 173.273438 33.558594 173.785156 26.746094 171.875 26.746094 C 169.964844 26.746094 170.476562 33.558594 171.875 35.632812 Z M 181.632812 30.789062 C 180.28125 29.4375 175.828125 34.617188 175.347656 37.074219 C 177.804688 36.59375 182.984375 32.140625 181.632812 30.789062 Z M 181.632812 50.304688 C 182.984375 48.953125 177.804688 44.5 175.347656 44.019531 C 175.828125 46.476562 180.28125 51.65625 181.632812 50.304688 Z M 166.960938 40.546875 C 164.886719 39.148438 158.074219 38.636719 158.074219 40.546875 C 158.074219 42.457031 164.886719 41.945312 166.960938 40.546875 Z M 185.675781 40.546875 C 185.675781 38.636719 178.863281 39.148438 176.789062 40.546875 C 178.863281 41.945312 185.675781 42.457031 185.675781 40.546875 Z M 171.875 54.347656 C 173.785156 54.347656 173.273438 47.535156 171.875 45.460938 C 170.476562 47.535156 169.964844 54.347656 171.875 54.347656 Z M 168.402344 37.074219 C 167.921875 34.617188 163.46875 29.4375 162.117188 30.789062 C 160.765625 32.140625 165.945312 36.59375 168.402344 37.074219 Z M 162.117188 50.304688 C 163.46875 51.65625 167.921875 46.476562 168.402344 44.019531 C 165.945312 44.5 160.765625 48.953125 162.117188 50.304688 Z M 185.675781 36.929688 C 184.441406 36.519531 182.992188 36.425781 181.714844 36.472656 C 182.652344 35.601562 183.609375 34.507812 184.191406 33.347656 L 185.675781 34.832031 Z M 184.191406 47.746094 C 183.609375 46.585938 182.652344 45.492188 181.714844 44.621094 C 182.992188 44.667969 184.441406 44.574219 185.675781 44.164062 L 185.675781 46.261719 Z M 158.074219 44.164062 C 159.308594 44.574219 160.757812 44.667969 162.035156 44.621094 C 161.097656 45.492188 160.140625 46.585938 159.558594 47.746094 L 158.074219 46.261719 Z M 140.625 38.675781 C 141.65625 38.675781 142.496094 39.511719 142.496094 40.546875 C 142.496094 41.578125 141.65625 42.417969 140.625 42.417969 C 139.589844 42.417969 138.753906 41.578125 138.753906 40.546875 C 138.753906 39.511719 139.589844 38.675781 140.625 38.675781 Z M 140.625 35.632812 C 139.226562 33.558594 138.714844 26.746094 140.625 26.746094 C 142.535156 26.746094 142.023438 33.558594 140.625 35.632812 Z M 130.867188 30.789062 C 132.21875 29.4375 136.671875 34.617188 137.152344 37.074219 C 134.695312 36.59375 129.515625 32.140625 130.867188 30.789062 Z M 130.867188 50.304688 C 129.515625 48.953125 134.695312 44.5 137.152344 44.019531 C 136.671875 46.476562 132.21875 51.65625 130.867188 50.304688 Z M 145.539062 40.546875 C 147.613281 39.148438 154.425781 38.636719 154.425781 40.546875 C 154.425781 42.457031 147.613281 41.945312 145.539062 40.546875 Z M 126.824219 40.546875 C 126.824219 38.636719 133.636719 39.148438 135.710938 40.546875 C 133.636719 41.945312 126.824219 42.457031 126.824219 40.546875 Z M 140.625 54.347656 C 138.714844 54.347656 139.226562 47.535156 140.625 45.460938 C 142.023438 47.535156 142.535156 54.347656 140.625 54.347656 Z M 144.097656 37.074219 C 144.578125 34.617188 149.03125 29.4375 150.382812 30.789062 C 151.734375 32.140625 146.554688 36.59375 144.097656 37.074219 Z M 150.382812 50.304688 C 149.03125 51.65625 144.578125 46.476562 144.097656 44.019531 C 146.554688 44.5 151.734375 48.953125 150.382812 50.304688 Z M 126.824219 36.929688 C 128.058594 36.519531 129.507812 36.425781 130.785156 36.472656 C 129.847656 35.601562 128.890625 34.507812 128.308594 33.347656 L 126.824219 34.832031 Z M 128.308594 47.746094 C 128.890625 46.585938 129.847656 45.492188 130.785156 44.621094 C 129.507812 44.667969 128.058594 44.574219 126.824219 44.164062 L 126.824219 46.261719 Z M 154.425781 44.164062 C 153.191406 44.574219 151.742188 44.667969 150.464844 44.621094 C 151.402344 45.492188 152.359375 46.585938 152.941406 47.746094 L 154.425781 46.261719 Z M 97.058594 33.347656 C 97.640625 34.507812 98.597656 35.601562 99.535156 36.472656 C 98.257812 36.425781 96.808594 36.519531 95.574219 36.929688 L 95.574219 34.832031 Z M 90.441406 33.347656 C 89.859375 34.507812 88.902344 35.601562 87.964844 36.472656 C 89.242188 36.425781 90.691406 36.519531 91.925781 36.929688 L 91.925781 34.832031 Z M 62.5 26.746094 L 72.410156 26.746094 L 70.925781 28.230469 C 72.085938 28.8125 73.179688 29.769531 74.050781 30.707031 C 74 29.429688 74.097656 27.980469 74.507812 26.746094 L 76.023438 26.746094 C 75.308594 28.25 75.417969 30.574219 75.5625 31.824219 C 75.726562 33.265625 76.125 35.214844 76.941406 36.429688 L 77.53125 37.304688 C 77.0625 37.390625 76.628906 37.574219 76.253906 37.832031 L 76.050781 36.800781 C 75.769531 35.363281 74.671875 33.699219 73.769531 32.566406 C 72.550781 31.03125 69.429688 27.710938 67.359375 29.78125 C 65.289062 31.851562 68.609375 34.972656 70.144531 36.191406 C 71.277344 37.09375 72.941406 38.191406 74.378906 38.472656 L 75.410156 38.675781 C 75.152344 39.050781 74.96875 39.484375 74.882812 39.953125 L 74.007812 39.363281 C 72.792969 38.546875 70.84375 38.148438 69.402344 37.984375 C 67.453125 37.761719 62.898438 37.621094 62.898438 40.546875 C 62.898438 43.472656 67.453125 43.332031 69.402344 43.109375 C 70.84375 42.945312 72.792969 42.546875 74.007812 41.730469 L 74.882812 41.140625 C 74.96875 41.609375 75.152344 42.042969 75.410156 42.417969 L 74.378906 42.621094 C 72.941406 42.902344 71.277344 44 70.144531 44.902344 C 68.609375 46.121094 65.289062 49.242188 67.359375 51.3125 C 69.429688 53.382812 72.550781 50.0625 73.769531 48.527344 C 74.671875 47.394531 75.769531 45.730469 76.050781 44.292969 L 76.253906 43.261719 C 76.628906 43.519531 77.0625 43.703125 77.53125 43.789062 L 76.941406 44.664062 C 76.125 45.878906 75.726562 47.828125 75.5625 49.269531 C 75.417969 50.519531 75.308594 52.84375 76.023438 54.347656 L 72.410156 54.347656 L 74.507812 54.347656 C 74.097656 53.113281 74.003906 51.664062 74.050781 50.386719 C 73.179688 51.324219 72.085938 52.28125 70.925781 52.863281 L 72.410156 54.347656 L 52.589844 54.347656 L 54.074219 52.863281 C 52.914062 52.28125 51.820312 51.324219 50.949219 50.386719 C 50.996094 51.664062 50.902344 53.113281 50.492188 54.347656 L 52.589844 54.347656 L 48.976562 54.347656 C 49.691406 52.84375 49.582031 50.519531 49.4375 49.269531 C 49.273438 47.828125 48.875 45.878906 48.058594 44.664062 L 47.46875 43.789062 C 47.9375 43.703125 48.371094 43.519531 48.746094 43.261719 L 48.949219 44.292969 C 49.230469 45.730469 50.328125 47.394531 51.230469 48.527344 C 52.449219 50.0625 55.570312 53.382812 57.640625 51.3125 C 59.710938 49.242188 56.390625 46.121094 54.855469 44.902344 C 53.722656 44 52.058594 42.902344 50.621094 42.621094 L 49.589844 42.417969 C 49.847656 42.042969 50.03125 41.609375 50.117188 41.140625 L 50.992188 41.730469 C 52.207031 42.546875 54.15625 42.945312 55.597656 43.109375 C 57.546875 43.332031 62.101562 43.472656 62.101562 40.546875 C 62.101562 37.621094 57.546875 37.761719 55.597656 37.984375 C 54.15625 38.148438 52.207031 38.546875 50.992188 39.363281 L 50.117188 39.953125 C 50.03125 39.484375 49.847656 39.050781 49.589844 38.675781 L 50.621094 38.472656 C 52.058594 38.191406 53.722656 37.09375 54.855469 36.191406 C 56.390625 34.972656 59.710938 31.851562 57.640625 29.78125 C 55.570312 27.710938 52.449219 31.03125 51.230469 32.566406 C 50.328125 33.699219 49.230469 35.363281 48.949219 36.800781 L 48.746094 37.832031 C 48.371094 37.574219 47.9375 37.390625 47.46875 37.304688 L 48.058594 36.429688 C 48.875 35.214844 49.273438 33.265625 49.4375 31.824219 C 49.582031 30.574219 49.691406 28.25 48.976562 26.746094 L 50.492188 26.746094 C 50.902344 27.980469 51 29.429688 50.949219 30.707031 C 51.820312 29.769531 52.914062 28.8125 54.074219 28.230469 L 52.589844 26.746094 Z M 93.75 54.347656 L 83.839844 54.347656 L 85.324219 52.863281 C 84.164062 52.28125 83.070312 51.324219 82.199219 50.386719 C 82.246094 51.664062 82.152344 53.113281 81.742188 54.347656 L 80.226562 54.347656 C 80.941406 52.84375 80.832031 50.519531 80.6875 49.269531 C 80.523438 47.828125 80.125 45.878906 79.308594 44.664062 L 78.71875 43.789062 C 79.1875 43.703125 79.621094 43.519531 79.996094 43.261719 L 80.199219 44.292969 C 80.480469 45.730469 81.578125 47.394531 82.480469 48.527344 C 83.699219 50.0625 86.820312 53.382812 88.890625 51.3125 C 90.960938 49.242188 87.640625 46.121094 86.105469 44.902344 C 84.972656 44 83.308594 42.902344 81.871094 42.621094 L 80.839844 42.417969 C 81.097656 42.042969 81.28125 41.609375 81.367188 41.140625 L 82.242188 41.730469 C 83.457031 42.546875 85.40625 42.945312 86.847656 43.109375 C 88.796875 43.332031 93.351562 43.472656 93.351562 40.546875 C 93.351562 37.621094 88.796875 37.761719 86.847656 37.984375 C 85.40625 38.148438 83.457031 38.546875 82.242188 39.363281 L 81.367188 39.953125 C 81.28125 39.484375 81.097656 39.050781 80.839844 38.675781 L 81.871094 38.472656 C 83.308594 38.191406 84.972656 37.09375 86.105469 36.191406 C 87.640625 34.972656 90.960938 31.851562 88.890625 29.78125 C 86.820312 27.710938 83.699219 31.03125 82.480469 32.566406 C 81.578125 33.699219 80.480469 35.363281 80.199219 36.800781 L 79.996094 37.832031 C 79.621094 37.574219 79.1875 37.390625 78.71875 37.304688 L 79.308594 36.429688 C 80.125 35.214844 80.523438 33.265625 80.6875 31.824219 C 80.832031 30.574219 80.941406 28.25 80.226562 26.746094 L 81.742188 26.746094 C 82.152344 27.980469 82.25 29.429688 82.199219 30.707031 C 83.070312 29.769531 84.164062 28.8125 85.324219 28.230469 L 83.839844 26.746094 L 103.660156 26.746094 L 102.175781 28.230469 C 103.335938 28.8125 104.429688 29.769531 105.300781 30.707031 C 105.253906 29.429688 105.347656 27.980469 105.757812 26.746094 L 107.273438 26.746094 C 106.558594 28.25 106.667969 30.574219 106.8125 31.824219 C 106.976562 33.265625 107.375 35.214844 108.191406 36.429688 L 108.78125 37.304688 C 108.3125 37.390625 107.878906 37.574219 107.503906 37.832031 L 107.300781 36.800781 C 107.019531 35.363281 105.921875 33.699219 105.019531 32.566406 C 103.800781 31.03125 100.679688 27.710938 98.609375 29.78125 C 96.539062 31.851562 99.859375 34.972656 101.394531 36.191406 C 102.527344 37.09375 104.191406 38.191406 105.628906 38.472656 L 106.664062 38.675781 C 106.402344 39.050781 106.21875 39.484375 106.132812 39.953125 L 105.257812 39.363281 C 104.042969 38.546875 102.09375 38.148438 100.652344 37.984375 C 98.703125 37.761719 94.152344 37.621094 94.148438 40.546875 C 94.152344 43.472656 98.703125 43.332031 100.652344 43.109375 C 102.09375 42.945312 104.042969 42.546875 105.257812 41.730469 L 106.132812 41.140625 C 106.21875 41.609375 106.402344 42.042969 106.664062 42.417969 L 105.628906 42.621094 C 104.191406 42.902344 102.527344 44 101.394531 44.902344 C 99.859375 46.121094 96.539062 49.242188 98.609375 51.3125 C 100.679688 53.382812 103.800781 50.0625 105.019531 48.527344 C 105.921875 47.394531 107.019531 45.730469 107.300781 44.292969 L 107.503906 43.261719 C 107.878906 43.519531 108.3125 43.703125 108.78125 43.789062 L 108.191406 44.664062 C 107.375 45.878906 106.976562 47.828125 106.8125 49.269531 C 106.667969 50.519531 106.558594 52.84375 107.273438 54.347656 L 105.757812 54.347656 C 105.347656 53.113281 105.253906 51.664062 105.300781 50.386719 C 104.429688 51.324219 103.335938 52.28125 102.175781 52.863281 L 103.660156 54.347656 Z M 78.125 38.675781 C 79.15625 38.675781 79.996094 39.515625 79.996094 40.546875 C 79.996094 41.582031 79.15625 42.417969 78.125 42.417969 C 77.089844 42.417969 76.253906 41.582031 76.253906 40.546875 C 76.253906 39.515625 77.089844 38.675781 78.125 38.675781 Z M 78.125 35.632812 C 76.726562 33.558594 76.214844 26.746094 78.125 26.746094 C 80.035156 26.746094 79.523438 33.558594 78.125 35.632812 Z M 68.367188 30.789062 C 69.71875 29.4375 74.171875 34.617188 74.652344 37.074219 C 72.195312 36.59375 67.015625 32.140625 68.367188 30.789062 Z M 68.367188 50.304688 C 67.015625 48.953125 72.195312 44.5 74.652344 44.019531 C 74.171875 46.476562 69.71875 51.65625 68.367188 50.304688 Z M 83.039062 40.546875 C 85.113281 39.148438 91.925781 38.636719 91.925781 40.546875 C 91.925781 42.457031 85.113281 41.945312 83.039062 40.546875 Z M 64.324219 40.546875 C 64.324219 38.636719 71.136719 39.148438 73.210938 40.546875 C 71.136719 41.945312 64.324219 42.457031 64.324219 40.546875 Z M 78.125 54.347656 C 76.214844 54.347656 76.726562 47.535156 78.125 45.460938 C 79.523438 47.535156 80.035156 54.347656 78.125 54.347656 Z M 81.597656 37.074219 C 82.078125 34.617188 86.53125 29.4375 87.882812 30.789062 C 89.234375 32.140625 84.054688 36.59375 81.597656 37.074219 Z M 87.882812 50.304688 C 86.53125 51.65625 82.078125 46.476562 81.597656 44.019531 C 84.054688 44.5 89.234375 48.953125 87.882812 50.304688 Z M 64.324219 36.929688 C 65.558594 36.519531 67.007812 36.425781 68.285156 36.472656 C 67.347656 35.601562 66.390625 34.507812 65.808594 33.347656 L 64.324219 34.832031 Z M 65.808594 47.746094 C 66.390625 46.585938 67.347656 45.492188 68.285156 44.621094 C 67.007812 44.667969 65.558594 44.574219 64.324219 44.164062 L 64.324219 46.261719 Z M 91.925781 44.164062 C 90.691406 44.574219 89.242188 44.667969 87.964844 44.621094 C 88.902344 45.492188 89.859375 46.585938 90.441406 47.746094 L 91.925781 46.261719 Z M 109.375 38.675781 C 108.34375 38.675781 107.503906 39.515625 107.503906 40.546875 C 107.503906 41.582031 108.34375 42.417969 109.375 42.417969 C 110.410156 42.417969 111.246094 41.582031 111.246094 40.546875 C 111.246094 39.515625 110.410156 38.675781 109.375 38.675781 Z M 109.375 35.632812 C 110.773438 33.558594 111.285156 26.746094 109.375 26.746094 C 107.464844 26.746094 107.976562 33.558594 109.375 35.632812 Z M 119.132812 30.789062 C 117.78125 29.4375 113.328125 34.617188 112.847656 37.074219 C 115.304688 36.59375 120.484375 32.140625 119.132812 30.789062 Z M 119.132812 50.304688 C 120.484375 48.953125 115.304688 44.5 112.847656 44.019531 C 113.328125 46.476562 117.78125 51.65625 119.132812 50.304688 Z M 104.460938 40.546875 C 102.386719 39.148438 95.574219 38.636719 95.574219 40.546875 C 95.574219 42.457031 102.386719 41.945312 104.460938 40.546875 Z M 123.175781 40.546875 C 123.175781 38.636719 116.363281 39.148438 114.289062 40.546875 C 116.363281 41.945312 123.175781 42.457031 123.175781 40.546875 Z M 109.375 54.347656 C 111.285156 54.347656 110.773438 47.535156 109.375 45.460938 C 107.976562 47.535156 107.464844 54.347656 109.375 54.347656 Z M 105.902344 37.074219 C 105.421875 34.617188 100.96875 29.4375 99.617188 30.789062 C 98.265625 32.140625 103.445312 36.59375 105.902344 37.074219 Z M 99.617188 50.304688 C 100.96875 51.65625 105.421875 46.476562 105.902344 44.019531 C 103.445312 44.5 98.265625 48.953125 99.617188 50.304688 Z M 123.175781 36.929688 C 121.941406 36.519531 120.492188 36.425781 119.214844 36.472656 C 120.152344 35.601562 121.109375 34.507812 121.691406 33.347656 L 123.175781 34.832031 Z M 121.691406 47.746094 C 121.109375 46.585938 120.152344 45.492188 119.214844 44.621094 C 120.492188 44.667969 121.941406 44.574219 123.175781 44.164062 L 123.175781 46.261719 Z M 95.574219 44.164062 C 96.808594 44.574219 98.257812 44.667969 99.535156 44.621094 C 98.597656 45.492188 97.640625 46.585938 97.058594 47.746094 L 95.574219 46.261719 Z M 34.558594 33.347656 C 35.140625 34.507812 36.097656 35.601562 37.035156 36.472656 C 35.757812 36.425781 34.308594 36.519531 33.074219 36.929688 L 33.074219 34.832031 Z M 31.25 54.347656 L 41.160156 54.347656 L 39.675781 52.863281 C 40.835938 52.28125 41.929688 51.324219 42.800781 50.386719 C 42.753906 51.664062 42.847656 53.113281 43.257812 54.347656 L 44.773438 54.347656 C 44.058594 52.84375 44.167969 50.519531 44.3125 49.269531 C 44.476562 47.828125 44.875 45.878906 45.691406 44.664062 L 46.28125 43.789062 C 45.8125 43.703125 45.378906 43.519531 45.003906 43.261719 L 44.800781 44.292969 C 44.519531 45.730469 43.421875 47.394531 42.519531 48.527344 C 41.300781 50.0625 38.179688 53.382812 36.109375 51.3125 C 34.039062 49.242188 37.359375 46.121094 38.894531 44.902344 C 40.027344 44 41.691406 42.902344 43.128906 42.621094 L 44.160156 42.417969 C 43.902344 42.042969 43.71875 41.609375 43.632812 41.140625 L 42.757812 41.730469 C 41.542969 42.546875 39.59375 42.945312 38.152344 43.109375 C 36.203125 43.332031 31.648438 43.472656 31.648438 40.546875 C 31.648438 37.621094 36.203125 37.761719 38.152344 37.984375 C 39.59375 38.148438 41.542969 38.546875 42.757812 39.363281 L 43.632812 39.953125 C 43.71875 39.484375 43.902344 39.050781 44.160156 38.675781 L 43.128906 38.472656 C 41.691406 38.191406 40.027344 37.09375 38.894531 36.191406 C 37.359375 34.972656 34.039062 31.851562 36.109375 29.78125 C 38.179688 27.710938 41.300781 31.03125 42.519531 32.566406 C 43.421875 33.699219 44.519531 35.363281 44.800781 36.800781 L 45.003906 37.832031 C 45.378906 37.574219 45.8125 37.390625 46.28125 37.304688 L 45.691406 36.429688 C 44.875 35.214844 44.476562 33.265625 44.3125 31.824219 C 44.167969 30.574219 44.058594 28.253906 44.773438 26.746094 L 43.257812 26.746094 C 42.847656 27.980469 42.75 29.429688 42.800781 30.707031 C 41.929688 29.769531 40.835938 28.8125 39.675781 28.230469 L 41.160156 26.746094 L 21.339844 26.746094 L 22.824219 28.230469 C 21.664062 28.8125 20.570312 29.769531 19.699219 30.707031 C 19.746094 29.429688 19.652344 27.980469 19.242188 26.746094 L 17.726562 26.746094 C 18.441406 28.253906 18.332031 30.574219 18.1875 31.824219 C 18.023438 33.265625 17.625 35.214844 16.808594 36.429688 L 16.21875 37.304688 C 16.6875 37.390625 17.121094 37.574219 17.496094 37.832031 L 17.699219 36.800781 C 17.980469 35.363281 19.078125 33.699219 19.980469 32.566406 C 21.199219 31.03125 24.320312 27.710938 26.390625 29.78125 C 28.460938 31.851562 25.140625 34.972656 23.605469 36.191406 C 22.472656 37.09375 20.808594 38.191406 19.371094 38.472656 L 18.335938 38.675781 C 18.597656 39.050781 18.78125 39.484375 18.867188 39.953125 L 19.742188 39.363281 C 20.957031 38.546875 22.90625 38.148438 24.347656 37.984375 C 26.296875 37.761719 30.847656 37.621094 30.851562 40.546875 C 30.847656 43.472656 26.296875 43.332031 24.347656 43.109375 C 22.90625 42.945312 20.957031 42.546875 19.742188 41.730469 L 18.867188 41.140625 C 18.78125 41.609375 18.597656 42.042969 18.335938 42.417969 L 19.371094 42.621094 C 20.808594 42.902344 22.472656 44 23.605469 44.902344 C 25.140625 46.121094 28.460938 49.242188 26.390625 51.3125 C 24.320312 53.382812 21.199219 50.0625 19.980469 48.527344 C 19.078125 47.394531 17.980469 45.730469 17.699219 44.292969 L 17.496094 43.261719 C 17.121094 43.519531 16.6875 43.703125 16.21875 43.789062 L 16.808594 44.664062 C 17.625 45.878906 18.023438 47.828125 18.1875 49.269531 C 18.332031 50.519531 18.441406 52.84375 17.726562 54.347656 L 19.242188 54.347656 C 19.652344 53.113281 19.746094 51.664062 19.699219 50.386719 C 20.570312 51.324219 21.664062 52.28125 22.824219 52.863281 L 21.339844 54.347656 Z M 46.875 38.675781 C 45.84375 38.675781 45.003906 39.515625 45.003906 40.546875 C 45.003906 41.582031 45.84375 42.417969 46.875 42.417969 C 47.910156 42.417969 48.746094 41.582031 48.746094 40.546875 C 48.746094 39.515625 47.910156 38.675781 46.875 38.675781 Z M 46.875 35.632812 C 48.273438 33.558594 48.785156 26.746094 46.875 26.746094 C 44.964844 26.746094 45.476562 33.558594 46.875 35.632812 Z M 56.632812 30.789062 C 55.28125 29.4375 50.828125 34.617188 50.347656 37.074219 C 52.804688 36.59375 57.984375 32.140625 56.632812 30.789062 Z M 56.632812 50.304688 C 57.984375 48.953125 52.804688 44.5 50.347656 44.019531 C 50.828125 46.476562 55.28125 51.65625 56.632812 50.304688 Z M 41.960938 40.546875 C 39.886719 39.148438 33.074219 38.636719 33.074219 40.546875 C 33.074219 42.457031 39.886719 41.945312 41.960938 40.546875 Z M 60.675781 40.546875 C 60.675781 38.636719 53.863281 39.148438 51.789062 40.546875 C 53.863281 41.945312 60.675781 42.457031 60.675781 40.546875 Z M 46.875 54.347656 C 48.785156 54.347656 48.273438 47.535156 46.875 45.460938 C 45.476562 47.535156 44.964844 54.347656 46.875 54.347656 Z M 43.402344 37.074219 C 42.921875 34.617188 38.46875 29.4375 37.117188 30.789062 C 35.765625 32.140625 40.945312 36.59375 43.402344 37.074219 Z M 37.117188 50.304688 C 38.46875 51.65625 42.921875 46.476562 43.402344 44.019531 C 40.945312 44.5 35.765625 48.953125 37.117188 50.304688 Z M 60.675781 36.929688 C 59.441406 36.519531 57.992188 36.425781 56.714844 36.472656 C 57.652344 35.601562 58.609375 34.507812 59.191406 33.347656 L 60.675781 34.832031 Z M 59.191406 47.746094 C 58.609375 46.585938 57.652344 45.492188 56.714844 44.621094 C 57.992188 44.667969 59.441406 44.574219 60.675781 44.164062 L 60.675781 46.261719 Z M 33.074219 44.164062 C 34.308594 44.574219 35.757812 44.667969 37.035156 44.621094 C 36.097656 45.492188 35.140625 46.585938 34.558594 47.746094 L 33.074219 46.261719 Z M 15.625 38.675781 C 16.65625 38.675781 17.496094 39.515625 17.496094 40.546875 C 17.496094 41.582031 16.65625 42.417969 15.625 42.417969 C 14.589844 42.417969 13.753906 41.582031 13.753906 40.546875 C 13.753906 39.515625 14.589844 38.675781 15.625 38.675781 Z M 15.625 35.632812 C 14.226562 33.558594 13.714844 26.746094 15.625 26.746094 C 17.535156 26.746094 17.023438 33.558594 15.625 35.632812 Z M 5.867188 30.789062 C 7.21875 29.4375 11.671875 34.617188 12.152344 37.074219 C 9.695312 36.59375 4.515625 32.140625 5.867188 30.789062 Z M 5.867188 50.304688 C 4.515625 48.953125 9.695312 44.5 12.152344 44.019531 C 11.671875 46.476562 7.21875 51.65625 5.867188 50.304688 Z M 20.539062 40.546875 C 22.613281 39.148438 29.425781 38.636719 29.425781 40.546875 C 29.425781 42.457031 22.613281 41.945312 20.539062 40.546875 Z M 1.824219 40.546875 C 1.824219 38.636719 8.636719 39.148438 10.710938 40.546875 C 8.636719 41.945312 1.824219 42.457031 1.824219 40.546875 Z M 15.625 54.347656 C 13.714844 54.347656 14.226562 47.535156 15.625 45.460938 C 17.023438 47.535156 17.535156 54.347656 15.625 54.347656 Z M 19.097656 37.074219 C 19.578125 34.617188 24.03125 29.441406 25.382812 30.789062 C 26.734375 32.140625 21.554688 36.59375 19.097656 37.074219 Z M 25.382812 50.304688 C 24.03125 51.65625 19.578125 46.476562 19.097656 44.019531 C 21.554688 44.5 26.734375 48.953125 25.382812 50.304688 Z M 1.824219 36.929688 C 3.058594 36.519531 4.507812 36.425781 5.785156 36.472656 C 4.847656 35.601562 3.890625 34.507812 3.308594 33.347656 L 1.824219 34.832031 Z M 3.308594 47.746094 C 3.890625 46.585938 4.847656 45.492188 5.785156 44.625 C 4.507812 44.667969 3.058594 44.574219 1.824219 44.164062 L 1.824219 46.261719 Z M 29.425781 44.164062 C 28.191406 44.574219 26.742188 44.671875 25.464844 44.625 C 26.402344 45.492188 27.359375 46.585938 27.941406 47.746094 L 29.425781 46.261719 Z M 29.425781 44.164062 " fill-opacity="1" fill-rule="evenodd"/></g><g clip-path="url(#f73f133f32)"><path fill="#cda349" d="M 215.441406 33.347656 C 214.859375 34.507812 213.902344 35.601562 212.964844 36.472656 C 214.242188 36.425781 215.691406 36.519531 216.925781 36.929688 L 216.925781 34.832031 Z M 340.441406 33.347656 C 339.859375 34.507812 338.902344 35.601562 337.964844 36.472656 C 339.242188 36.425781 340.691406 36.519531 341.925781 36.929688 L 341.925781 34.832031 Z M 347.058594 33.347656 C 347.640625 34.507812 348.597656 35.601562 349.535156 36.472656 C 348.257812 36.425781 346.808594 36.519531 345.574219 36.929688 L 345.574219 34.832031 Z M 375 55.773438 L 187.5 55.773438 L 187.5 54.347656 L 197.410156 54.347656 L 195.925781 52.863281 C 197.085938 52.28125 198.179688 51.324219 199.050781 50.386719 C 199.003906 51.664062 199.097656 53.113281 199.507812 54.347656 L 197.410156 54.347656 L 201.023438 54.347656 C 200.308594 52.84375 200.417969 50.519531 200.5625 49.269531 C 200.726562 47.828125 201.125 45.878906 201.941406 44.664062 L 202.53125 43.789062 C 202.0625 43.703125 201.628906 43.519531 201.253906 43.261719 L 201.050781 44.292969 C 200.769531 45.730469 199.671875 47.394531 198.769531 48.527344 C 197.550781 50.0625 194.429688 53.382812 192.359375 51.3125 C 190.289062 49.242188 193.609375 46.121094 195.144531 44.902344 C 196.277344 44 197.941406 42.902344 199.378906 42.621094 L 200.410156 42.417969 C 200.152344 42.042969 199.96875 41.609375 199.882812 41.140625 L 199.007812 41.730469 C 197.792969 42.546875 195.84375 42.945312 194.402344 43.109375 C 192.453125 43.332031 187.898438 43.472656 187.898438 40.546875 C 187.898438 37.621094 192.453125 37.761719 194.402344 37.984375 C 195.84375 38.148438 197.792969 38.546875 199.007812 39.363281 L 199.882812 39.953125 C 199.96875 39.484375 200.152344 39.050781 200.410156 38.675781 L 199.378906 38.472656 C 197.941406 38.191406 196.277344 37.09375 195.144531 36.191406 C 193.609375 34.972656 190.289062 31.851562 192.359375 29.78125 C 194.429688 27.710938 197.550781 31.03125 198.769531 32.566406 C 199.671875 33.699219 200.769531 35.363281 201.050781 36.800781 L 201.253906 37.832031 C 201.628906 37.574219 202.0625 37.390625 202.53125 37.304688 L 201.941406 36.429688 C 201.125 35.214844 200.726562 33.265625 200.5625 31.824219 C 200.417969 30.574219 200.308594 28.25 201.023438 26.746094 L 199.507812 26.746094 C 199.097656 27.980469 199 29.429688 199.050781 30.707031 C 198.179688 29.769531 197.085938 28.8125 195.925781 28.230469 L 197.410156 26.746094 L 187.5 26.746094 L 187.5 25.320312 L 375 25.320312 L 375 26.746094 L 365.089844 26.746094 L 366.574219 28.230469 C 365.414062 28.8125 364.320312 29.769531 363.449219 30.707031 C 363.496094 29.429688 363.402344 27.980469 362.992188 26.746094 L 361.476562 26.746094 C 362.191406 28.25 362.082031 30.574219 361.9375 31.824219 C 361.773438 33.265625 361.375 35.214844 360.558594 36.429688 L 359.96875 37.304688 C 360.4375 37.390625 360.871094 37.574219 361.246094 37.832031 L 361.449219 36.800781 C 361.730469 35.363281 362.828125 33.699219 363.730469 32.566406 C 364.949219 31.03125 368.070312 27.710938 370.140625 29.78125 C 372.210938 31.851562 368.890625 34.972656 367.355469 36.191406 C 366.222656 37.09375 364.558594 38.191406 363.121094 38.472656 L 362.089844 38.675781 C 362.347656 39.050781 362.53125 39.484375 362.617188 39.953125 L 363.492188 39.363281 C 364.707031 38.546875 366.65625 38.148438 368.097656 37.984375 C 370.046875 37.761719 374.601562 37.621094 374.601562 40.546875 C 374.601562 43.472656 370.046875 43.332031 368.097656 43.109375 C 366.65625 42.945312 364.707031 42.546875 363.492188 41.730469 L 362.617188 41.140625 C 362.53125 41.609375 362.347656 42.042969 362.089844 42.417969 L 363.121094 42.621094 C 364.558594 42.902344 366.222656 44 367.355469 44.902344 C 368.890625 46.121094 372.210938 49.242188 370.140625 51.3125 C 368.070312 53.382812 364.949219 50.0625 363.730469 48.527344 C 362.828125 47.394531 361.730469 45.730469 361.449219 44.292969 L 361.246094 43.261719 C 360.871094 43.519531 360.4375 43.703125 359.96875 43.789062 L 360.558594 44.664062 C 361.375 45.878906 361.773438 47.828125 361.9375 49.269531 C 362.082031 50.519531 362.191406 52.84375 361.476562 54.347656 L 365.089844 54.347656 L 362.992188 54.347656 C 363.402344 53.113281 363.496094 51.664062 363.449219 50.386719 C 364.320312 51.324219 365.414062 52.28125 366.574219 52.863281 L 365.089844 54.347656 L 375 54.347656 Z M 312.5 54.347656 L 322.410156 54.347656 L 320.925781 52.863281 C 322.085938 52.28125 323.179688 51.324219 324.050781 50.386719 C 324.003906 51.664062 324.097656 53.113281 324.507812 54.347656 L 322.410156 54.347656 L 326.023438 54.347656 C 325.308594 52.84375 325.417969 50.519531 325.5625 49.269531 C 325.726562 47.828125 326.125 45.878906 326.941406 44.664062 L 327.53125 43.789062 C 327.0625 43.703125 326.628906 43.519531 326.253906 43.261719 L 326.050781 44.292969 C 325.769531 45.730469 324.671875 47.394531 323.769531 48.527344 C 322.550781 50.0625 319.429688 53.382812 317.359375 51.3125 C 315.289062 49.242188 318.609375 46.121094 320.144531 44.902344 C 321.277344 44 322.941406 42.902344 324.378906 42.621094 L 325.410156 42.417969 C 325.152344 42.042969 324.96875 41.609375 324.882812 41.140625 L 324.007812 41.730469 C 322.792969 42.546875 320.84375 42.945312 319.402344 43.109375 C 317.453125 43.332031 312.898438 43.472656 312.898438 40.546875 C 312.898438 37.621094 317.453125 37.761719 319.402344 37.984375 C 320.84375 38.148438 322.792969 38.546875 324.007812 39.363281 L 324.882812 39.953125 C 324.96875 39.484375 325.152344 39.050781 325.410156 38.675781 L 324.378906 38.472656 C 322.941406 38.191406 321.277344 37.09375 320.144531 36.191406 C 318.609375 34.972656 315.289062 31.851562 317.359375 29.78125 C 319.429688 27.710938 322.550781 31.03125 323.769531 32.566406 C 324.671875 33.699219 325.769531 35.363281 326.050781 36.800781 L 326.253906 37.832031 C 326.628906 37.574219 327.0625 37.390625 327.53125 37.304688 L 326.941406 36.429688 C 326.125 35.214844 325.726562 33.265625 325.5625 31.824219 C 325.417969 30.574219 325.308594 28.25 326.023438 26.746094 L 324.507812 26.746094 C 324.097656 27.980469 324 29.429688 324.050781 30.707031 C 323.179688 29.769531 322.085938 28.8125 320.925781 28.230469 L 322.410156 26.746094 L 302.589844 26.746094 L 304.074219 28.230469 C 302.914062 28.8125 301.820312 29.769531 300.949219 30.707031 C 300.996094 29.429688 300.902344 27.980469 300.492188 26.746094 L 298.976562 26.746094 C 299.691406 28.25 299.582031 30.574219 299.4375 31.824219 C 299.273438 33.265625 298.875 35.214844 298.058594 36.429688 L 297.46875 37.304688 C 297.9375 37.390625 298.371094 37.574219 298.746094 37.832031 L 298.949219 36.800781 C 299.230469 35.363281 300.328125 33.699219 301.230469 32.566406 C 302.449219 31.03125 305.570312 27.710938 307.640625 29.78125 C 309.710938 31.851562 306.390625 34.972656 304.855469 36.191406 C 303.722656 37.09375 302.058594 38.191406 300.621094 38.472656 L 299.589844 38.675781 C 299.847656 39.050781 300.03125 39.484375 300.117188 39.953125 L 300.992188 39.363281 C 302.207031 38.546875 304.15625 38.148438 305.597656 37.984375 C 307.546875 37.761719 312.101562 37.621094 312.101562 40.546875 C 312.101562 43.472656 307.546875 43.332031 305.597656 43.109375 C 304.15625 42.945312 302.207031 42.546875 300.992188 41.730469 L 300.117188 41.140625 C 300.03125 41.609375 299.847656 42.042969 299.589844 42.417969 L 300.621094 42.621094 C 302.058594 42.902344 303.722656 44 304.855469 44.902344 C 306.390625 46.121094 309.710938 49.242188 307.640625 51.3125 C 305.570312 53.382812 302.449219 50.0625 301.230469 48.527344 C 300.328125 47.394531 299.230469 45.730469 298.949219 44.292969 L 298.746094 43.261719 C 298.371094 43.519531 297.9375 43.703125 297.46875 43.789062 L 298.058594 44.664062 C 298.875 45.878906 299.273438 47.828125 299.4375 49.269531 C 299.582031 50.519531 299.691406 52.84375 298.976562 54.347656 L 302.589844 54.347656 L 300.492188 54.347656 C 300.902344 53.113281 300.996094 51.664062 300.949219 50.386719 C 301.820312 51.324219 302.914062 52.28125 304.074219 52.863281 L 302.589844 54.347656 Z M 343.75 54.347656 L 353.660156 54.347656 L 352.175781 52.863281 C 353.335938 52.28125 354.429688 51.324219 355.300781 50.386719 C 355.253906 51.664062 355.347656 53.113281 355.757812 54.347656 L 357.273438 54.347656 C 356.558594 52.84375 356.667969 50.519531 356.8125 49.269531 C 356.976562 47.828125 357.375 45.878906 358.191406 44.664062 L 358.78125 43.789062 C 358.3125 43.703125 357.878906 43.519531 357.503906 43.257812 L 357.300781 44.292969 C 357.019531 45.730469 355.921875 47.394531 355.019531 48.527344 C 353.800781 50.0625 350.679688 53.382812 348.609375 51.3125 C 346.539062 49.242188 349.859375 46.121094 351.394531 44.902344 C 352.527344 44 354.191406 42.902344 355.628906 42.621094 L 356.660156 42.417969 C 356.402344 42.042969 356.21875 41.609375 356.132812 41.140625 L 355.257812 41.730469 C 354.042969 42.546875 352.09375 42.945312 350.652344 43.109375 C 348.703125 43.332031 344.148438 43.472656 344.148438 40.546875 C 344.148438 37.621094 348.703125 37.761719 350.652344 37.984375 C 352.09375 38.148438 354.042969 38.546875 355.257812 39.363281 L 356.132812 39.953125 C 356.21875 39.484375 356.402344 39.050781 356.660156 38.675781 L 355.628906 38.472656 C 354.191406 38.191406 352.527344 37.09375 351.394531 36.191406 C 349.859375 34.972656 346.539062 31.851562 348.609375 29.78125 C 350.679688 27.710938 353.800781 31.03125 355.019531 32.566406 C 355.921875 33.699219 357.019531 35.363281 357.300781 36.800781 L 357.503906 37.832031 C 357.878906 37.574219 358.3125 37.390625 358.78125 37.304688 L 358.191406 36.429688 C 357.375 35.214844 356.976562 33.265625 356.8125 31.824219 C 356.667969 30.574219 356.558594 28.25 357.273438 26.746094 L 355.757812 26.746094 C 355.347656 27.980469 355.25 29.429688 355.300781 30.707031 C 354.429688 29.769531 353.335938 28.8125 352.175781 28.230469 L 353.660156 26.746094 L 333.839844 26.746094 L 335.324219 28.230469 C 334.164062 28.8125 333.070312 29.769531 332.199219 30.707031 C 332.246094 29.429688 332.152344 27.980469 331.742188 26.746094 L 330.226562 26.746094 C 330.941406 28.25 330.832031 30.574219 330.6875 31.824219 C 330.523438 33.265625 330.125 35.214844 329.308594 36.429688 L 328.71875 37.304688 C 329.1875 37.390625 329.621094 37.574219 329.996094 37.832031 L 330.199219 36.800781 C 330.480469 35.363281 331.578125 33.699219 332.480469 32.566406 C 333.699219 31.03125 336.820312 27.710938 338.890625 29.78125 C 340.960938 31.851562 337.640625 34.972656 336.105469 36.191406 C 334.972656 37.09375 333.308594 38.191406 331.871094 38.472656 L 330.835938 38.675781 C 331.097656 39.050781 331.28125 39.484375 331.367188 39.953125 L 332.242188 39.363281 C 333.457031 38.546875 335.40625 38.148438 336.847656 37.984375 C 338.796875 37.761719 343.347656 37.621094 343.351562 40.546875 C 343.347656 43.472656 338.796875 43.332031 336.847656 43.109375 C 335.40625 42.945312 333.457031 42.546875 332.242188 41.730469 L 331.367188 41.140625 C 331.28125 41.609375 331.097656 42.042969 330.835938 42.417969 L 331.871094 42.621094 C 333.308594 42.902344 334.972656 44 336.105469 44.902344 C 337.640625 46.121094 340.960938 49.242188 338.890625 51.3125 C 336.820312 53.382812 333.699219 50.0625 332.480469 48.527344 C 331.578125 47.394531 330.480469 45.730469 330.199219 44.292969 L 329.996094 43.257812 C 329.621094 43.519531 329.1875 43.703125 328.71875 43.789062 L 329.308594 44.664062 C 330.125 45.878906 330.523438 47.828125 330.6875 49.269531 C 330.832031 50.519531 330.941406 52.84375 330.226562 54.347656 L 331.742188 54.347656 C 332.152344 53.113281 332.246094 51.664062 332.199219 50.386719 C 333.070312 51.324219 334.164062 52.28125 335.324219 52.863281 L 333.839844 54.347656 Z M 359.375 38.675781 C 358.339844 38.675781 357.503906 39.511719 357.503906 40.546875 C 357.503906 41.578125 358.339844 42.417969 359.375 42.417969 C 360.40625 42.417969 361.246094 41.578125 361.246094 40.546875 C 361.246094 39.511719 360.40625 38.675781 359.375 38.675781 Z M 359.375 35.632812 C 360.773438 33.558594 361.285156 26.746094 359.375 26.746094 C 357.464844 26.746094 357.976562 33.558594 359.375 35.632812 Z M 369.132812 30.789062 C 367.78125 29.4375 363.328125 34.617188 362.847656 37.074219 C 365.304688 36.59375 370.484375 32.140625 369.132812 30.789062 Z M 369.132812 50.304688 C 370.484375 48.953125 365.304688 44.5 362.847656 44.019531 C 363.328125 46.476562 367.78125 51.65625 369.132812 50.304688 Z M 354.460938 40.546875 C 352.386719 39.148438 345.574219 38.636719 345.574219 40.546875 C 345.574219 42.457031 352.386719 41.945312 354.460938 40.546875 Z M 373.175781 40.546875 C 373.175781 38.636719 366.363281 39.148438 364.289062 40.546875 C 366.363281 41.945312 373.175781 42.457031 373.175781 40.546875 Z M 359.375 54.347656 C 361.285156 54.347656 360.773438 47.535156 359.375 45.460938 C 357.976562 47.535156 357.464844 54.347656 359.375 54.347656 Z M 355.902344 37.074219 C 355.421875 34.617188 350.96875 29.4375 349.617188 30.789062 C 348.265625 32.140625 353.445312 36.59375 355.902344 37.074219 Z M 349.617188 50.304688 C 350.96875 51.65625 355.421875 46.476562 355.902344 44.019531 C 353.445312 44.5 348.265625 48.953125 349.617188 50.304688 Z M 373.175781 36.929688 C 371.941406 36.519531 370.492188 36.425781 369.214844 36.472656 C 370.152344 35.601562 371.109375 34.507812 371.691406 33.347656 L 373.175781 34.832031 Z M 371.691406 47.746094 C 371.109375 46.585938 370.152344 45.492188 369.214844 44.621094 C 370.492188 44.667969 371.941406 44.574219 373.175781 44.164062 L 373.175781 46.261719 Z M 345.574219 44.164062 C 346.808594 44.574219 348.257812 44.667969 349.535156 44.621094 C 348.597656 45.492188 347.640625 46.585938 347.058594 47.746094 L 345.574219 46.261719 Z M 328.125 38.675781 C 329.15625 38.675781 329.996094 39.511719 329.996094 40.546875 C 329.996094 41.578125 329.15625 42.417969 328.125 42.417969 C 327.089844 42.417969 326.253906 41.578125 326.253906 40.546875 C 326.253906 39.511719 327.089844 38.675781 328.125 38.675781 Z M 328.125 35.632812 C 326.726562 33.558594 326.214844 26.746094 328.125 26.746094 C 330.035156 26.746094 329.523438 33.558594 328.125 35.632812 Z M 318.367188 30.789062 C 319.71875 29.4375 324.171875 34.617188 324.652344 37.074219 C 322.195312 36.59375 317.015625 32.140625 318.367188 30.789062 Z M 318.367188 50.304688 C 317.015625 48.953125 322.195312 44.5 324.652344 44.019531 C 324.171875 46.476562 319.71875 51.65625 318.367188 50.304688 Z M 333.039062 40.546875 C 335.113281 39.148438 341.925781 38.636719 341.925781 40.546875 C 341.925781 42.457031 335.113281 41.945312 333.039062 40.546875 Z M 314.324219 40.546875 C 314.324219 38.636719 321.136719 39.148438 323.210938 40.546875 C 321.136719 41.945312 314.324219 42.457031 314.324219 40.546875 Z M 328.125 54.347656 C 326.214844 54.347656 326.726562 47.535156 328.125 45.460938 C 329.523438 47.535156 330.035156 54.347656 328.125 54.347656 Z M 331.597656 37.074219 C 332.078125 34.617188 336.53125 29.4375 337.882812 30.789062 C 339.234375 32.140625 334.054688 36.59375 331.597656 37.074219 Z M 337.882812 50.304688 C 336.53125 51.65625 332.078125 46.476562 331.597656 44.019531 C 334.054688 44.5 339.234375 48.953125 337.882812 50.304688 Z M 314.324219 36.929688 C 315.558594 36.519531 317.007812 36.425781 318.285156 36.472656 C 317.347656 35.601562 316.390625 34.507812 315.808594 33.347656 L 314.324219 34.832031 Z M 315.808594 47.746094 C 316.390625 46.585938 317.347656 45.492188 318.285156 44.621094 C 317.007812 44.667969 315.558594 44.574219 314.324219 44.164062 L 314.324219 46.261719 Z M 341.925781 44.164062 C 340.691406 44.574219 339.242188 44.667969 337.964844 44.621094 C 338.902344 45.492188 339.859375 46.585938 340.441406 47.746094 L 341.925781 46.261719 Z M 284.558594 33.347656 C 285.140625 34.507812 286.097656 35.601562 287.035156 36.472656 C 285.757812 36.425781 284.308594 36.519531 283.074219 36.929688 L 283.074219 34.832031 Z M 277.941406 33.347656 C 277.359375 34.507812 276.402344 35.601562 275.464844 36.472656 C 276.742188 36.425781 278.191406 36.519531 279.425781 36.929688 L 279.425781 34.832031 Z M 250 26.746094 L 259.910156 26.746094 L 258.425781 28.230469 C 259.585938 28.8125 260.679688 29.769531 261.550781 30.707031 C 261.5 29.429688 261.597656 27.980469 262.007812 26.746094 L 263.523438 26.746094 C 262.808594 28.25 262.917969 30.574219 263.0625 31.824219 C 263.226562 33.265625 263.625 35.214844 264.441406 36.429688 L 265.03125 37.304688 C 264.5625 37.390625 264.128906 37.574219 263.753906 37.832031 L 263.550781 36.800781 C 263.269531 35.363281 262.171875 33.699219 261.269531 32.566406 C 260.050781 31.03125 256.929688 27.710938 254.859375 29.78125 C 252.789062 31.851562 256.109375 34.972656 257.644531 36.191406 C 258.777344 37.09375 260.441406 38.191406 261.878906 38.472656 L 262.910156 38.675781 C 262.652344 39.050781 262.46875 39.484375 262.382812 39.953125 L 261.507812 39.363281 C 260.292969 38.546875 258.34375 38.148438 256.902344 37.984375 C 254.953125 37.761719 250.398438 37.621094 250.398438 40.546875 C 250.398438 43.472656 254.953125 43.332031 256.902344 43.109375 C 258.34375 42.945312 260.292969 42.546875 261.507812 41.730469 L 262.382812 41.140625 C 262.46875 41.609375 262.652344 42.042969 262.910156 42.417969 L 261.878906 42.621094 C 260.441406 42.902344 258.777344 44 257.644531 44.902344 C 256.109375 46.121094 252.789062 49.242188 254.859375 51.3125 C 256.929688 53.382812 260.050781 50.0625 261.269531 48.527344 C 262.171875 47.394531 263.269531 45.730469 263.550781 44.292969 L 263.753906 43.261719 C 264.128906 43.519531 264.5625 43.703125 265.03125 43.789062 L 264.441406 44.664062 C 263.625 45.878906 263.226562 47.828125 263.0625 49.269531 C 262.917969 50.519531 262.808594 52.84375 263.523438 54.347656 L 259.910156 54.347656 L 262.007812 54.347656 C 261.597656 53.113281 261.503906 51.664062 261.550781 50.386719 C 260.679688 51.324219 259.585938 52.28125 258.425781 52.863281 L 259.910156 54.347656 L 240.089844 54.347656 L 241.574219 52.863281 C 240.414062 52.28125 239.320312 51.324219 238.449219 50.386719 C 238.496094 51.664062 238.402344 53.113281 237.992188 54.347656 L 240.089844 54.347656 L 236.476562 54.347656 C 237.191406 52.84375 237.082031 50.519531 236.9375 49.269531 C 236.773438 47.828125 236.375 45.878906 235.558594 44.664062 L 234.96875 43.789062 C 235.4375 43.703125 235.871094 43.519531 236.246094 43.261719 L 236.449219 44.292969 C 236.730469 45.730469 237.828125 47.394531 238.730469 48.527344 C 239.949219 50.0625 243.070312 53.382812 245.140625 51.3125 C 247.210938 49.242188 243.890625 46.121094 242.355469 44.902344 C 241.222656 44 239.558594 42.902344 238.121094 42.621094 L 237.089844 42.417969 C 237.347656 42.042969 237.53125 41.609375 237.617188 41.140625 L 238.492188 41.730469 C 239.707031 42.546875 241.65625 42.945312 243.097656 43.109375 C 245.046875 43.332031 249.601562 43.472656 249.601562 40.546875 C 249.601562 37.621094 245.046875 37.761719 243.097656 37.984375 C 241.65625 38.148438 239.707031 38.546875 238.492188 39.363281 L 237.617188 39.953125 C 237.53125 39.484375 237.347656 39.050781 237.089844 38.675781 L 238.121094 38.472656 C 239.558594 38.191406 241.222656 37.09375 242.355469 36.191406 C 243.890625 34.972656 247.210938 31.851562 245.140625 29.78125 C 243.070312 27.710938 239.949219 31.03125 238.730469 32.566406 C 237.828125 33.699219 236.730469 35.363281 236.449219 36.800781 L 236.246094 37.832031 C 235.871094 37.574219 235.4375 37.390625 234.96875 37.304688 L 235.558594 36.429688 C 236.375 35.214844 236.773438 33.265625 236.9375 31.824219 C 237.082031 30.574219 237.191406 28.25 236.476562 26.746094 L 237.992188 26.746094 C 238.402344 27.980469 238.5 29.429688 238.449219 30.707031 C 239.320312 29.769531 240.414062 28.8125 241.574219 28.230469 L 240.089844 26.746094 Z M 281.25 54.347656 L 271.339844 54.347656 L 272.824219 52.863281 C 271.664062 52.28125 270.570312 51.324219 269.699219 50.386719 C 269.746094 51.664062 269.652344 53.113281 269.242188 54.347656 L 267.726562 54.347656 C 268.441406 52.84375 268.332031 50.519531 268.1875 49.269531 C 268.023438 47.828125 267.625 45.878906 266.808594 44.664062 L 266.21875 43.789062 C 266.6875 43.703125 267.121094 43.519531 267.496094 43.261719 L 267.699219 44.292969 C 267.980469 45.730469 269.078125 47.394531 269.980469 48.527344 C 271.199219 50.0625 274.320312 53.382812 276.390625 51.3125 C 278.460938 49.242188 275.140625 46.121094 273.605469 44.902344 C 272.472656 44 270.808594 42.902344 269.371094 42.621094 L 268.339844 42.417969 C 268.597656 42.042969 268.78125 41.609375 268.867188 41.140625 L 269.742188 41.730469 C 270.957031 42.546875 272.90625 42.945312 274.347656 43.109375 C 276.296875 43.332031 280.851562 43.472656 280.851562 40.546875 C 280.851562 37.621094 276.296875 37.761719 274.347656 37.984375 C 272.90625 38.148438 270.957031 38.546875 269.742188 39.363281 L 268.867188 39.953125 C 268.78125 39.484375 268.597656 39.050781 268.339844 38.675781 L 269.371094 38.472656 C 270.808594 38.191406 272.472656 37.09375 273.605469 36.191406 C 275.140625 34.972656 278.460938 31.851562 276.390625 29.78125 C 274.320312 27.710938 271.199219 31.03125 269.980469 32.566406 C 269.078125 33.699219 267.980469 35.363281 267.699219 36.800781 L 267.496094 37.832031 C 267.121094 37.574219 266.6875 37.390625 266.21875 37.304688 L 266.808594 36.429688 C 267.625 35.214844 268.023438 33.265625 268.1875 31.824219 C 268.332031 30.574219 268.441406 28.25 267.726562 26.746094 L 269.242188 26.746094 C 269.652344 27.980469 269.75 29.429688 269.699219 30.707031 C 270.570312 29.769531 271.664062 28.8125 272.824219 28.230469 L 271.339844 26.746094 L 291.160156 26.746094 L 289.675781 28.230469 C 290.835938 28.8125 291.929688 29.769531 292.800781 30.707031 C 292.753906 29.429688 292.847656 27.980469 293.257812 26.746094 L 294.773438 26.746094 C 294.058594 28.25 294.167969 30.574219 294.3125 31.824219 C 294.476562 33.265625 294.875 35.214844 295.691406 36.429688 L 296.28125 37.304688 C 295.8125 37.390625 295.378906 37.574219 295.003906 37.832031 L 294.800781 36.800781 C 294.519531 35.363281 293.421875 33.699219 292.519531 32.566406 C 291.300781 31.03125 288.179688 27.710938 286.109375 29.78125 C 284.039062 31.851562 287.359375 34.972656 288.894531 36.191406 C 290.027344 37.09375 291.691406 38.191406 293.128906 38.472656 L 294.164062 38.675781 C 293.902344 39.050781 293.71875 39.484375 293.632812 39.953125 L 292.757812 39.363281 C 291.542969 38.546875 289.59375 38.148438 288.152344 37.984375 C 286.203125 37.761719 281.652344 37.621094 281.648438 40.546875 C 281.652344 43.472656 286.203125 43.332031 288.152344 43.109375 C 289.59375 42.945312 291.542969 42.546875 292.757812 41.730469 L 293.632812 41.140625 C 293.71875 41.609375 293.902344 42.042969 294.164062 42.417969 L 293.128906 42.621094 C 291.691406 42.902344 290.027344 44 288.894531 44.902344 C 287.359375 46.121094 284.039062 49.242188 286.109375 51.3125 C 288.179688 53.382812 291.300781 50.0625 292.519531 48.527344 C 293.421875 47.394531 294.519531 45.730469 294.800781 44.292969 L 295.003906 43.261719 C 295.378906 43.519531 295.8125 43.703125 296.28125 43.789062 L 295.691406 44.664062 C 294.875 45.878906 294.476562 47.828125 294.3125 49.269531 C 294.167969 50.519531 294.058594 52.84375 294.773438 54.347656 L 293.257812 54.347656 C 292.847656 53.113281 292.753906 51.664062 292.800781 50.386719 C 291.929688 51.324219 290.835938 52.28125 289.675781 52.863281 L 291.160156 54.347656 Z M 265.625 38.675781 C 266.65625 38.675781 267.496094 39.515625 267.496094 40.546875 C 267.496094 41.582031 266.65625 42.417969 265.625 42.417969 C 264.589844 42.417969 263.753906 41.582031 263.753906 40.546875 C 263.753906 39.515625 264.589844 38.675781 265.625 38.675781 Z M 265.625 35.632812 C 264.226562 33.558594 263.714844 26.746094 265.625 26.746094 C 267.535156 26.746094 267.023438 33.558594 265.625 35.632812 Z M 255.867188 30.789062 C 257.21875 29.4375 261.671875 34.617188 262.152344 37.074219 C 259.695312 36.59375 254.515625 32.140625 255.867188 30.789062 Z M 255.867188 50.304688 C 254.515625 48.953125 259.695312 44.5 262.152344 44.019531 C 261.671875 46.476562 257.21875 51.65625 255.867188 50.304688 Z M 270.539062 40.546875 C 272.613281 39.148438 279.425781 38.636719 279.425781 40.546875 C 279.425781 42.457031 272.613281 41.945312 270.539062 40.546875 Z M 251.824219 40.546875 C 251.824219 38.636719 258.636719 39.148438 260.710938 40.546875 C 258.636719 41.945312 251.824219 42.457031 251.824219 40.546875 Z M 265.625 54.347656 C 263.714844 54.347656 264.226562 47.535156 265.625 45.460938 C 267.023438 47.535156 267.535156 54.347656 265.625 54.347656 Z M 269.097656 37.074219 C 269.578125 34.617188 274.03125 29.4375 275.382812 30.789062 C 276.734375 32.140625 271.554688 36.59375 269.097656 37.074219 Z M 275.382812 50.304688 C 274.03125 51.65625 269.578125 46.476562 269.097656 44.019531 C 271.554688 44.5 276.734375 48.953125 275.382812 50.304688 Z M 251.824219 36.929688 C 253.058594 36.519531 254.507812 36.425781 255.785156 36.472656 C 254.847656 35.601562 253.890625 34.507812 253.308594 33.347656 L 251.824219 34.832031 Z M 253.308594 47.746094 C 253.890625 46.585938 254.847656 45.492188 255.785156 44.621094 C 254.507812 44.667969 253.058594 44.574219 251.824219 44.164062 L 251.824219 46.261719 Z M 279.425781 44.164062 C 278.191406 44.574219 276.742188 44.667969 275.464844 44.621094 C 276.402344 45.492188 277.359375 46.585938 277.941406 47.746094 L 279.425781 46.261719 Z M 296.875 38.675781 C 295.84375 38.675781 295.003906 39.515625 295.003906 40.546875 C 295.003906 41.582031 295.84375 42.417969 296.875 42.417969 C 297.910156 42.417969 298.746094 41.582031 298.746094 40.546875 C 298.746094 39.515625 297.910156 38.675781 296.875 38.675781 Z M 296.875 35.632812 C 298.273438 33.558594 298.785156 26.746094 296.875 26.746094 C 294.964844 26.746094 295.476562 33.558594 296.875 35.632812 Z M 306.632812 30.789062 C 305.28125 29.4375 300.828125 34.617188 300.347656 37.074219 C 302.804688 36.59375 307.984375 32.140625 306.632812 30.789062 Z M 306.632812 50.304688 C 307.984375 48.953125 302.804688 44.5 300.347656 44.019531 C 300.828125 46.476562 305.28125 51.65625 306.632812 50.304688 Z M 291.960938 40.546875 C 289.886719 39.148438 283.074219 38.636719 283.074219 40.546875 C 283.074219 42.457031 289.886719 41.945312 291.960938 40.546875 Z M 310.675781 40.546875 C 310.675781 38.636719 303.863281 39.148438 301.789062 40.546875 C 303.863281 41.945312 310.675781 42.457031 310.675781 40.546875 Z M 296.875 54.347656 C 298.785156 54.347656 298.273438 47.535156 296.875 45.460938 C 295.476562 47.535156 294.964844 54.347656 296.875 54.347656 Z M 293.402344 37.074219 C 292.921875 34.617188 288.46875 29.4375 287.117188 30.789062 C 285.765625 32.140625 290.945312 36.59375 293.402344 37.074219 Z M 287.117188 50.304688 C 288.46875 51.65625 292.921875 46.476562 293.402344 44.019531 C 290.945312 44.5 285.765625 48.953125 287.117188 50.304688 Z M 310.675781 36.929688 C 309.441406 36.519531 307.992188 36.425781 306.714844 36.472656 C 307.652344 35.601562 308.609375 34.507812 309.191406 33.347656 L 310.675781 34.832031 Z M 309.191406 47.746094 C 308.609375 46.585938 307.652344 45.492188 306.714844 44.621094 C 307.992188 44.667969 309.441406 44.574219 310.675781 44.164062 L 310.675781 46.261719 Z M 283.074219 44.164062 C 284.308594 44.574219 285.757812 44.667969 287.035156 44.621094 C 286.097656 45.492188 285.140625 46.585938 284.558594 47.746094 L 283.074219 46.261719 Z M 222.058594 33.347656 C 222.640625 34.507812 223.597656 35.601562 224.535156 36.472656 C 223.257812 36.425781 221.808594 36.519531 220.574219 36.929688 L 220.574219 34.832031 Z M 218.75 54.347656 L 228.660156 54.347656 L 227.175781 52.863281 C 228.335938 52.28125 229.429688 51.324219 230.300781 50.386719 C 230.253906 51.664062 230.347656 53.113281 230.757812 54.347656 L 232.273438 54.347656 C 231.558594 52.84375 231.667969 50.519531 231.8125 49.269531 C 231.976562 47.828125 232.375 45.878906 233.191406 44.664062 L 233.78125 43.789062 C 233.3125 43.703125 232.878906 43.519531 232.503906 43.261719 L 232.300781 44.292969 C 232.019531 45.730469 230.921875 47.394531 230.019531 48.527344 C 228.800781 50.0625 225.679688 53.382812 223.609375 51.3125 C 221.539062 49.242188 224.859375 46.121094 226.394531 44.902344 C 227.527344 44 229.191406 42.902344 230.628906 42.621094 L 231.660156 42.417969 C 231.402344 42.042969 231.21875 41.609375 231.132812 41.140625 L 230.257812 41.730469 C 229.042969 42.546875 227.09375 42.945312 225.652344 43.109375 C 223.703125 43.332031 219.148438 43.472656 219.148438 40.546875 C 219.148438 37.621094 223.703125 37.761719 225.652344 37.984375 C 227.09375 38.148438 229.042969 38.546875 230.257812 39.363281 L 231.132812 39.953125 C 231.21875 39.484375 231.402344 39.050781 231.660156 38.675781 L 230.628906 38.472656 C 229.191406 38.191406 227.527344 37.09375 226.394531 36.191406 C 224.859375 34.972656 221.539062 31.851562 223.609375 29.78125 C 225.679688 27.710938 228.800781 31.03125 230.019531 32.566406 C 230.921875 33.699219 232.019531 35.363281 232.300781 36.800781 L 232.503906 37.832031 C 232.878906 37.574219 233.3125 37.390625 233.78125 37.304688 L 233.191406 36.429688 C 232.375 35.214844 231.976562 33.265625 231.8125 31.824219 C 231.667969 30.574219 231.558594 28.253906 232.273438 26.746094 L 230.757812 26.746094 C 230.347656 27.980469 230.25 29.429688 230.300781 30.707031 C 229.429688 29.769531 228.335938 28.8125 227.175781 28.230469 L 228.660156 26.746094 L 208.839844 26.746094 L 210.324219 28.230469 C 209.164062 28.8125 208.070312 29.769531 207.199219 30.707031 C 207.246094 29.429688 207.152344 27.980469 206.742188 26.746094 L 205.226562 26.746094 C 205.941406 28.253906 205.832031 30.574219 205.6875 31.824219 C 205.523438 33.265625 205.125 35.214844 204.308594 36.429688 L 203.71875 37.304688 C 204.1875 37.390625 204.621094 37.574219 204.996094 37.832031 L 205.199219 36.800781 C 205.480469 35.363281 206.578125 33.699219 207.480469 32.566406 C 208.699219 31.03125 211.820312 27.710938 213.890625 29.78125 C 215.960938 31.851562 212.640625 34.972656 211.105469 36.191406 C 209.972656 37.09375 208.308594 38.191406 206.871094 38.472656 L 205.835938 38.675781 C 206.097656 39.050781 206.28125 39.484375 206.367188 39.953125 L 207.242188 39.363281 C 208.457031 38.546875 210.40625 38.148438 211.847656 37.984375 C 213.796875 37.761719 218.347656 37.621094 218.351562 40.546875 C 218.347656 43.472656 213.796875 43.332031 211.847656 43.109375 C 210.40625 42.945312 208.457031 42.546875 207.242188 41.730469 L 206.367188 41.140625 C 206.28125 41.609375 206.097656 42.042969 205.835938 42.417969 L 206.871094 42.621094 C 208.308594 42.902344 209.972656 44 211.105469 44.902344 C 212.640625 46.121094 215.960938 49.242188 213.890625 51.3125 C 211.820312 53.382812 208.699219 50.0625 207.480469 48.527344 C 206.578125 47.394531 205.480469 45.730469 205.199219 44.292969 L 204.996094 43.261719 C 204.621094 43.519531 204.1875 43.703125 203.71875 43.789062 L 204.308594 44.664062 C 205.125 45.878906 205.523438 47.828125 205.6875 49.269531 C 205.832031 50.519531 205.941406 52.84375 205.226562 54.347656 L 206.742188 54.347656 C 207.152344 53.113281 207.246094 51.664062 207.199219 50.386719 C 208.070312 51.324219 209.164062 52.28125 210.324219 52.863281 L 208.839844 54.347656 Z M 234.375 38.675781 C 233.34375 38.675781 232.503906 39.515625 232.503906 40.546875 C 232.503906 41.582031 233.339844 42.417969 234.375 42.417969 C 235.410156 42.417969 236.246094 41.582031 236.246094 40.546875 C 236.246094 39.515625 235.410156 38.675781 234.375 38.675781 Z M 234.375 35.632812 C 235.773438 33.558594 236.285156 26.746094 234.375 26.746094 C 232.464844 26.746094 232.976562 33.558594 234.375 35.632812 Z M 244.132812 30.789062 C 242.78125 29.4375 238.328125 34.617188 237.847656 37.074219 C 240.304688 36.59375 245.484375 32.140625 244.132812 30.789062 Z M 244.132812 50.304688 C 245.484375 48.953125 240.304688 44.5 237.847656 44.019531 C 238.328125 46.476562 242.78125 51.65625 244.132812 50.304688 Z M 229.460938 40.546875 C 227.386719 39.148438 220.574219 38.636719 220.574219 40.546875 C 220.574219 42.457031 227.386719 41.945312 229.460938 40.546875 Z M 248.175781 40.546875 C 248.175781 38.636719 241.363281 39.148438 239.289062 40.546875 C 241.363281 41.945312 248.175781 42.457031 248.175781 40.546875 Z M 234.375 54.347656 C 236.285156 54.347656 235.773438 47.535156 234.375 45.460938 C 232.976562 47.535156 232.464844 54.347656 234.375 54.347656 Z M 230.902344 37.074219 C 230.421875 34.617188 225.96875 29.4375 224.617188 30.789062 C 223.265625 32.140625 228.445312 36.59375 230.902344 37.074219 Z M 224.617188 50.304688 C 225.96875 51.65625 230.421875 46.476562 230.902344 44.019531 C 228.445312 44.5 223.265625 48.953125 224.617188 50.304688 Z M 248.175781 36.929688 C 246.941406 36.519531 245.492188 36.425781 244.214844 36.472656 C 245.152344 35.601562 246.109375 34.507812 246.691406 33.347656 L 248.175781 34.832031 Z M 246.691406 47.746094 C 246.109375 46.585938 245.152344 45.492188 244.214844 44.621094 C 245.492188 44.667969 246.941406 44.574219 248.175781 44.164062 L 248.175781 46.261719 Z M 220.574219 44.164062 C 221.808594 44.574219 223.257812 44.667969 224.535156 44.621094 C 223.597656 45.492188 222.640625 46.585938 222.058594 47.746094 L 220.574219 46.261719 Z M 203.125 38.675781 C 204.15625 38.675781 204.996094 39.515625 204.996094 40.546875 C 204.996094 41.582031 204.15625 42.417969 203.125 42.417969 C 202.089844 42.417969 201.253906 41.582031 201.253906 40.546875 C 201.253906 39.515625 202.089844 38.675781 203.125 38.675781 Z M 203.125 35.632812 C 201.726562 33.558594 201.214844 26.746094 203.125 26.746094 C 205.035156 26.746094 204.523438 33.558594 203.125 35.632812 Z M 193.367188 30.789062 C 194.71875 29.4375 199.171875 34.617188 199.652344 37.074219 C 197.195312 36.59375 192.015625 32.140625 193.367188 30.789062 Z M 193.367188 50.304688 C 192.015625 48.953125 197.195312 44.5 199.652344 44.019531 C 199.171875 46.476562 194.71875 51.65625 193.367188 50.304688 Z M 208.039062 40.546875 C 210.113281 39.148438 216.925781 38.636719 216.925781 40.546875 C 216.925781 42.457031 210.113281 41.945312 208.039062 40.546875 Z M 189.324219 40.546875 C 189.324219 38.636719 196.136719 39.148438 198.210938 40.546875 C 196.136719 41.945312 189.324219 42.457031 189.324219 40.546875 Z M 203.125 54.347656 C 201.214844 54.347656 201.726562 47.535156 203.125 45.460938 C 204.523438 47.535156 205.035156 54.347656 203.125 54.347656 Z M 206.597656 37.074219 C 207.078125 34.617188 211.53125 29.441406 212.882812 30.789062 C 214.234375 32.140625 209.054688 36.59375 206.597656 37.074219 Z M 212.882812 50.304688 C 211.53125 51.65625 207.078125 46.476562 206.597656 44.019531 C 209.054688 44.5 214.234375 48.953125 212.882812 50.304688 Z M 189.324219 36.929688 C 190.558594 36.519531 192.007812 36.425781 193.285156 36.472656 C 192.347656 35.601562 191.390625 34.507812 190.808594 33.347656 L 189.324219 34.832031 Z M 190.808594 47.746094 C 191.390625 46.585938 192.347656 45.492188 193.285156 44.625 C 192.007812 44.667969 190.558594 44.574219 189.324219 44.164062 L 189.324219 46.261719 Z M 216.925781 44.164062 C 215.691406 44.574219 214.242188 44.671875 212.964844 44.625 C 213.902344 45.492188 214.859375 46.585938 215.441406 47.746094 L 216.925781 46.261719 Z M 216.925781 44.164062 " fill-opacity="1" fill-rule="evenodd"/></g></svg>